<mxfile host="app.diagrams.net" modified="2023-04-23T14:57:28.630Z" agent="Mozilla/5.0 (Windows NT 10.0; Win64; x64) AppleWebKit/537.36 (KHTML, like Gecko) Chrome/112.0.0.0 Safari/537.36 Edg/112.0.1722.48" etag="oYcIzyo769uQj4qpiAKq" version="21.2.1" type="device">
  <diagram name="Seite-1" id="F7lV1PvOkgLtKwa7rz2f">
    <mxGraphModel dx="2017" dy="4655" grid="1" gridSize="10" guides="1" tooltips="1" connect="1" arrows="1" fold="1" page="1" pageScale="1" pageWidth="827" pageHeight="1169" math="0" shadow="0">
      <root>
        <mxCell id="0" />
        <mxCell id="1" parent="0" />
        <mxCell id="Nvi5huXpUSMbHcGPlEOJ-7" value="Firma" style="whiteSpace=wrap;html=1;align=center;" parent="1" vertex="1">
          <mxGeometry x="620" y="-2240" width="100" height="40" as="geometry" />
        </mxCell>
        <mxCell id="Nvi5huXpUSMbHcGPlEOJ-8" value="Mitarbeiter" style="whiteSpace=wrap;html=1;align=center;" parent="1" vertex="1">
          <mxGeometry x="240" y="-1760" width="100" height="40" as="geometry" />
        </mxCell>
        <mxCell id="Nvi5huXpUSMbHcGPlEOJ-9" value="Position" style="whiteSpace=wrap;html=1;align=center;" parent="1" vertex="1">
          <mxGeometry x="940" y="-1440" width="100" height="40" as="geometry" />
        </mxCell>
        <mxCell id="Nvi5huXpUSMbHcGPlEOJ-10" value="Arbeitsplatz" style="whiteSpace=wrap;html=1;align=center;" parent="1" vertex="1">
          <mxGeometry x="1141" y="-1200" width="100" height="40" as="geometry" />
        </mxCell>
        <mxCell id="Nvi5huXpUSMbHcGPlEOJ-12" value="Gründungsdatum" style="ellipse;whiteSpace=wrap;html=1;align=center;" parent="1" vertex="1">
          <mxGeometry x="810" y="-2360" width="100" height="40" as="geometry" />
        </mxCell>
        <mxCell id="Nvi5huXpUSMbHcGPlEOJ-13" value="Umsatz" style="ellipse;whiteSpace=wrap;html=1;align=center;" parent="1" vertex="1">
          <mxGeometry x="810" y="-2280" width="100" height="40" as="geometry" />
        </mxCell>
        <mxCell id="Nvi5huXpUSMbHcGPlEOJ-14" value="Adresse" style="ellipse;whiteSpace=wrap;html=1;align=center;" parent="1" vertex="1">
          <mxGeometry x="810" y="-2200" width="100" height="40" as="geometry" />
        </mxCell>
        <mxCell id="Nvi5huXpUSMbHcGPlEOJ-16" value="Geburtsdatum" style="ellipse;whiteSpace=wrap;html=1;align=center;" parent="1" vertex="1">
          <mxGeometry x="110" y="-1760" width="100" height="40" as="geometry" />
        </mxCell>
        <mxCell id="Nvi5huXpUSMbHcGPlEOJ-17" value="Gehalt" style="ellipse;whiteSpace=wrap;html=1;align=center;" parent="1" vertex="1">
          <mxGeometry x="110" y="-1600" width="100" height="40" as="geometry" />
        </mxCell>
        <mxCell id="Nvi5huXpUSMbHcGPlEOJ-18" value="Einstellungsdatum" style="ellipse;whiteSpace=wrap;html=1;align=center;" parent="1" vertex="1">
          <mxGeometry x="110" y="-1680" width="100" height="40" as="geometry" />
        </mxCell>
        <mxCell id="Nvi5huXpUSMbHcGPlEOJ-20" value="Aufgabenbereich" style="ellipse;whiteSpace=wrap;html=1;align=center;" parent="1" vertex="1">
          <mxGeometry x="1120" y="-1480" width="100" height="40" as="geometry" />
        </mxCell>
        <mxCell id="Nvi5huXpUSMbHcGPlEOJ-21" value="Gehaltsspanne" style="ellipse;whiteSpace=wrap;html=1;align=center;" parent="1" vertex="1">
          <mxGeometry x="1120" y="-1400" width="100" height="40" as="geometry" />
        </mxCell>
        <mxCell id="Nvi5huXpUSMbHcGPlEOJ-23" value="Größe" style="ellipse;whiteSpace=wrap;html=1;align=center;" parent="1" vertex="1">
          <mxGeometry x="1300" y="-1160" width="100" height="40" as="geometry" />
        </mxCell>
        <mxCell id="Nvi5huXpUSMbHcGPlEOJ-25" value="Ausstattung" style="ellipse;whiteSpace=wrap;html=1;align=center;" parent="1" vertex="1">
          <mxGeometry x="1300" y="-1080" width="100" height="40" as="geometry" />
        </mxCell>
        <mxCell id="Nvi5huXpUSMbHcGPlEOJ-26" value="Verfügbarkeit" style="ellipse;whiteSpace=wrap;html=1;align=center;" parent="1" vertex="1">
          <mxGeometry x="1300" y="-1240" width="100" height="40" as="geometry" />
        </mxCell>
        <mxCell id="Nvi5huXpUSMbHcGPlEOJ-35" value="" style="endArrow=none;html=1;rounded=0;exitX=0.25;exitY=1;exitDx=0;exitDy=0;entryX=0.25;entryY=0;entryDx=0;entryDy=0;" parent="1" source="Nvi5huXpUSMbHcGPlEOJ-7" target="Nvi5huXpUSMbHcGPlEOJ-8" edge="1">
          <mxGeometry relative="1" as="geometry">
            <mxPoint x="414" y="-2080" as="sourcePoint" />
            <mxPoint x="574" y="-2080" as="targetPoint" />
          </mxGeometry>
        </mxCell>
        <mxCell id="Nvi5huXpUSMbHcGPlEOJ-36" value="N" style="resizable=0;html=1;whiteSpace=wrap;align=right;verticalAlign=bottom;" parent="Nvi5huXpUSMbHcGPlEOJ-35" connectable="0" vertex="1">
          <mxGeometry x="1" relative="1" as="geometry" />
        </mxCell>
        <mxCell id="Nvi5huXpUSMbHcGPlEOJ-42" value="Firmenname" style="ellipse;whiteSpace=wrap;html=1;align=center;fontStyle=4;" parent="1" vertex="1">
          <mxGeometry x="810" y="-2440" width="100" height="40" as="geometry" />
        </mxCell>
        <mxCell id="Nvi5huXpUSMbHcGPlEOJ-44" value="Bezeichnung" style="ellipse;whiteSpace=wrap;html=1;align=center;fontStyle=4;" parent="1" vertex="1">
          <mxGeometry x="1120" y="-1560" width="100" height="40" as="geometry" />
        </mxCell>
        <mxCell id="Nvi5huXpUSMbHcGPlEOJ-45" value="Mitarbeiter_ID" style="ellipse;whiteSpace=wrap;html=1;align=center;fontStyle=4;" parent="1" vertex="1">
          <mxGeometry x="110" y="-1840" width="100" height="40" as="geometry" />
        </mxCell>
        <mxCell id="Nvi5huXpUSMbHcGPlEOJ-46" value="Arbeitsplatz_ID" style="ellipse;whiteSpace=wrap;html=1;align=center;fontStyle=4;" parent="1" vertex="1">
          <mxGeometry x="1300" y="-1320" width="100" height="40" as="geometry" />
        </mxCell>
        <mxCell id="kzQuSgKzwXFJz22sEo70-1" value="Abteilung" style="whiteSpace=wrap;html=1;align=center;" parent="1" vertex="1">
          <mxGeometry x="1380" y="-1920" width="100" height="40" as="geometry" />
        </mxCell>
        <mxCell id="kzQuSgKzwXFJz22sEo70-3" value="Verantwortung" style="ellipse;whiteSpace=wrap;html=1;align=center;" parent="1" vertex="1">
          <mxGeometry x="1120" y="-1320" width="100" height="40" as="geometry" />
        </mxCell>
        <mxCell id="kzQuSgKzwXFJz22sEo70-5" value="Abteilungsleiter" style="ellipse;whiteSpace=wrap;html=1;align=center;" parent="1" vertex="1">
          <mxGeometry x="1540" y="-1960" width="100" height="40" as="geometry" />
        </mxCell>
        <mxCell id="kzQuSgKzwXFJz22sEo70-6" value="Budget" style="ellipse;whiteSpace=wrap;html=1;align=center;" parent="1" vertex="1">
          <mxGeometry x="1540" y="-1880" width="100" height="40" as="geometry" />
        </mxCell>
        <mxCell id="kzQuSgKzwXFJz22sEo70-7" value="Mitarbeiteranzahl" style="ellipse;whiteSpace=wrap;html=1;align=center;" parent="1" vertex="1">
          <mxGeometry x="1540" y="-1800" width="100" height="40" as="geometry" />
        </mxCell>
        <mxCell id="kzQuSgKzwXFJz22sEo70-8" value="Abteilungsname" style="ellipse;whiteSpace=wrap;html=1;align=center;fontStyle=4;" parent="1" vertex="1">
          <mxGeometry x="1540" y="-2040" width="100" height="40" as="geometry" />
        </mxCell>
        <mxCell id="kzQuSgKzwXFJz22sEo70-14" value="" style="endArrow=none;html=1;rounded=0;exitX=0.5;exitY=1;exitDx=0;exitDy=0;entryX=0.25;entryY=0;entryDx=0;entryDy=0;" parent="1" source="kzQuSgKzwXFJz22sEo70-55" target="Nvi5huXpUSMbHcGPlEOJ-10" edge="1">
          <mxGeometry relative="1" as="geometry">
            <mxPoint x="750" y="-1750" as="sourcePoint" />
            <mxPoint x="910" y="-1750" as="targetPoint" />
          </mxGeometry>
        </mxCell>
        <mxCell id="kzQuSgKzwXFJz22sEo70-18" value="" style="endArrow=none;html=1;rounded=0;entryX=0.75;entryY=0;entryDx=0;entryDy=0;exitX=1;exitY=0.5;exitDx=0;exitDy=0;" parent="1" source="kzQuSgKzwXFJz22sEo70-61" target="kzQuSgKzwXFJz22sEo70-1" edge="1">
          <mxGeometry relative="1" as="geometry">
            <mxPoint x="670" y="-2200" as="sourcePoint" />
            <mxPoint x="910" y="-1930" as="targetPoint" />
          </mxGeometry>
        </mxCell>
        <mxCell id="kzQuSgKzwXFJz22sEo70-19" value="N" style="resizable=0;html=1;whiteSpace=wrap;align=right;verticalAlign=bottom;" parent="kzQuSgKzwXFJz22sEo70-18" connectable="0" vertex="1">
          <mxGeometry x="1" relative="1" as="geometry" />
        </mxCell>
        <mxCell id="kzQuSgKzwXFJz22sEo70-20" value="" style="endArrow=none;html=1;rounded=0;exitX=1;exitY=0.5;exitDx=0;exitDy=0;entryX=0.25;entryY=0;entryDx=0;entryDy=0;" parent="1" source="kzQuSgKzwXFJz22sEo70-51" target="Nvi5huXpUSMbHcGPlEOJ-9" edge="1">
          <mxGeometry relative="1" as="geometry">
            <mxPoint x="750" y="-1880" as="sourcePoint" />
            <mxPoint x="910" y="-1880" as="targetPoint" />
          </mxGeometry>
        </mxCell>
        <mxCell id="kzQuSgKzwXFJz22sEo70-22" value="N" style="resizable=0;html=1;whiteSpace=wrap;align=right;verticalAlign=bottom;" parent="kzQuSgKzwXFJz22sEo70-20" connectable="0" vertex="1">
          <mxGeometry x="1" relative="1" as="geometry" />
        </mxCell>
        <mxCell id="kzQuSgKzwXFJz22sEo70-31" value="" style="endArrow=none;html=1;rounded=0;exitX=1;exitY=0.5;exitDx=0;exitDy=0;entryX=0;entryY=0.5;entryDx=0;entryDy=0;" parent="1" source="kzQuSgKzwXFJz22sEo70-1" target="kzQuSgKzwXFJz22sEo70-8" edge="1">
          <mxGeometry relative="1" as="geometry">
            <mxPoint x="750" y="-1530" as="sourcePoint" />
            <mxPoint x="910" y="-1530" as="targetPoint" />
          </mxGeometry>
        </mxCell>
        <mxCell id="kzQuSgKzwXFJz22sEo70-32" value="" style="endArrow=none;html=1;rounded=0;exitX=1;exitY=0.5;exitDx=0;exitDy=0;entryX=0;entryY=0.5;entryDx=0;entryDy=0;" parent="1" source="kzQuSgKzwXFJz22sEo70-1" target="kzQuSgKzwXFJz22sEo70-5" edge="1">
          <mxGeometry relative="1" as="geometry">
            <mxPoint x="750" y="-1000" as="sourcePoint" />
            <mxPoint x="910" y="-1000" as="targetPoint" />
          </mxGeometry>
        </mxCell>
        <mxCell id="kzQuSgKzwXFJz22sEo70-33" value="" style="endArrow=none;html=1;rounded=0;exitX=1;exitY=0.5;exitDx=0;exitDy=0;entryX=0;entryY=0.5;entryDx=0;entryDy=0;" parent="1" source="kzQuSgKzwXFJz22sEo70-1" target="kzQuSgKzwXFJz22sEo70-6" edge="1">
          <mxGeometry relative="1" as="geometry">
            <mxPoint x="750" y="-1000" as="sourcePoint" />
            <mxPoint x="910" y="-1000" as="targetPoint" />
          </mxGeometry>
        </mxCell>
        <mxCell id="kzQuSgKzwXFJz22sEo70-34" value="" style="endArrow=none;html=1;rounded=0;exitX=1;exitY=0.5;exitDx=0;exitDy=0;entryX=0;entryY=0.5;entryDx=0;entryDy=0;" parent="1" source="kzQuSgKzwXFJz22sEo70-1" target="kzQuSgKzwXFJz22sEo70-7" edge="1">
          <mxGeometry relative="1" as="geometry">
            <mxPoint x="750" y="-1000" as="sourcePoint" />
            <mxPoint x="910" y="-1000" as="targetPoint" />
          </mxGeometry>
        </mxCell>
        <mxCell id="kzQuSgKzwXFJz22sEo70-35" value="" style="endArrow=none;html=1;rounded=0;entryX=0;entryY=0.5;entryDx=0;entryDy=0;exitX=1;exitY=0.5;exitDx=0;exitDy=0;" parent="1" source="Nvi5huXpUSMbHcGPlEOJ-9" target="Nvi5huXpUSMbHcGPlEOJ-44" edge="1">
          <mxGeometry relative="1" as="geometry">
            <mxPoint x="750" y="-1530" as="sourcePoint" />
            <mxPoint x="910" y="-1530" as="targetPoint" />
          </mxGeometry>
        </mxCell>
        <mxCell id="kzQuSgKzwXFJz22sEo70-36" value="" style="endArrow=none;html=1;rounded=0;entryX=0;entryY=0.5;entryDx=0;entryDy=0;exitX=1;exitY=0.5;exitDx=0;exitDy=0;" parent="1" source="Nvi5huXpUSMbHcGPlEOJ-9" target="Nvi5huXpUSMbHcGPlEOJ-20" edge="1">
          <mxGeometry relative="1" as="geometry">
            <mxPoint x="750" y="-1530" as="sourcePoint" />
            <mxPoint x="910" y="-1530" as="targetPoint" />
          </mxGeometry>
        </mxCell>
        <mxCell id="kzQuSgKzwXFJz22sEo70-37" value="" style="endArrow=none;html=1;rounded=0;entryX=0;entryY=0.5;entryDx=0;entryDy=0;exitX=1;exitY=0.5;exitDx=0;exitDy=0;" parent="1" source="Nvi5huXpUSMbHcGPlEOJ-9" target="Nvi5huXpUSMbHcGPlEOJ-21" edge="1">
          <mxGeometry relative="1" as="geometry">
            <mxPoint x="750" y="-1530" as="sourcePoint" />
            <mxPoint x="910" y="-1530" as="targetPoint" />
          </mxGeometry>
        </mxCell>
        <mxCell id="kzQuSgKzwXFJz22sEo70-38" value="" style="endArrow=none;html=1;rounded=0;entryX=0;entryY=0.5;entryDx=0;entryDy=0;exitX=1;exitY=0.5;exitDx=0;exitDy=0;" parent="1" source="Nvi5huXpUSMbHcGPlEOJ-9" target="kzQuSgKzwXFJz22sEo70-3" edge="1">
          <mxGeometry relative="1" as="geometry">
            <mxPoint x="750" y="-1530" as="sourcePoint" />
            <mxPoint x="910" y="-1530" as="targetPoint" />
          </mxGeometry>
        </mxCell>
        <mxCell id="kzQuSgKzwXFJz22sEo70-39" value="" style="endArrow=none;html=1;rounded=0;entryX=0;entryY=0.5;entryDx=0;entryDy=0;exitX=1;exitY=0.5;exitDx=0;exitDy=0;" parent="1" source="Nvi5huXpUSMbHcGPlEOJ-10" target="Nvi5huXpUSMbHcGPlEOJ-46" edge="1">
          <mxGeometry relative="1" as="geometry">
            <mxPoint x="750" y="-2060" as="sourcePoint" />
            <mxPoint x="910" y="-2060" as="targetPoint" />
          </mxGeometry>
        </mxCell>
        <mxCell id="kzQuSgKzwXFJz22sEo70-40" value="" style="endArrow=none;html=1;rounded=0;entryX=0;entryY=0.5;entryDx=0;entryDy=0;exitX=1;exitY=0.5;exitDx=0;exitDy=0;" parent="1" source="Nvi5huXpUSMbHcGPlEOJ-10" target="Nvi5huXpUSMbHcGPlEOJ-26" edge="1">
          <mxGeometry relative="1" as="geometry">
            <mxPoint x="750" y="-2060" as="sourcePoint" />
            <mxPoint x="910" y="-2060" as="targetPoint" />
          </mxGeometry>
        </mxCell>
        <mxCell id="kzQuSgKzwXFJz22sEo70-41" value="" style="endArrow=none;html=1;rounded=0;entryX=0;entryY=0.5;entryDx=0;entryDy=0;exitX=1;exitY=0.5;exitDx=0;exitDy=0;" parent="1" source="Nvi5huXpUSMbHcGPlEOJ-10" target="Nvi5huXpUSMbHcGPlEOJ-23" edge="1">
          <mxGeometry relative="1" as="geometry">
            <mxPoint x="750" y="-2060" as="sourcePoint" />
            <mxPoint x="910" y="-2060" as="targetPoint" />
          </mxGeometry>
        </mxCell>
        <mxCell id="kzQuSgKzwXFJz22sEo70-42" value="" style="endArrow=none;html=1;rounded=0;entryX=0;entryY=0.5;entryDx=0;entryDy=0;exitX=1;exitY=0.5;exitDx=0;exitDy=0;" parent="1" source="Nvi5huXpUSMbHcGPlEOJ-10" target="Nvi5huXpUSMbHcGPlEOJ-25" edge="1">
          <mxGeometry relative="1" as="geometry">
            <mxPoint x="750" y="-2060" as="sourcePoint" />
            <mxPoint x="910" y="-2060" as="targetPoint" />
          </mxGeometry>
        </mxCell>
        <mxCell id="kzQuSgKzwXFJz22sEo70-43" value="" style="endArrow=none;html=1;rounded=0;entryX=0;entryY=0.5;entryDx=0;entryDy=0;exitX=1;exitY=0.5;exitDx=0;exitDy=0;" parent="1" source="Nvi5huXpUSMbHcGPlEOJ-7" target="Nvi5huXpUSMbHcGPlEOJ-14" edge="1">
          <mxGeometry relative="1" as="geometry">
            <mxPoint x="750" y="-2060" as="sourcePoint" />
            <mxPoint x="910" y="-2060" as="targetPoint" />
          </mxGeometry>
        </mxCell>
        <mxCell id="kzQuSgKzwXFJz22sEo70-44" value="" style="endArrow=none;html=1;rounded=0;entryX=0;entryY=0.5;entryDx=0;entryDy=0;exitX=1;exitY=0.5;exitDx=0;exitDy=0;" parent="1" source="Nvi5huXpUSMbHcGPlEOJ-7" target="Nvi5huXpUSMbHcGPlEOJ-13" edge="1">
          <mxGeometry relative="1" as="geometry">
            <mxPoint x="750" y="-2060" as="sourcePoint" />
            <mxPoint x="910" y="-2060" as="targetPoint" />
          </mxGeometry>
        </mxCell>
        <mxCell id="kzQuSgKzwXFJz22sEo70-45" value="" style="endArrow=none;html=1;rounded=0;entryX=0;entryY=0.5;entryDx=0;entryDy=0;exitX=1;exitY=0.5;exitDx=0;exitDy=0;" parent="1" source="Nvi5huXpUSMbHcGPlEOJ-7" target="Nvi5huXpUSMbHcGPlEOJ-12" edge="1">
          <mxGeometry relative="1" as="geometry">
            <mxPoint x="750" y="-2060" as="sourcePoint" />
            <mxPoint x="910" y="-2060" as="targetPoint" />
          </mxGeometry>
        </mxCell>
        <mxCell id="kzQuSgKzwXFJz22sEo70-46" value="" style="endArrow=none;html=1;rounded=0;entryX=0;entryY=0.5;entryDx=0;entryDy=0;exitX=1;exitY=0.5;exitDx=0;exitDy=0;" parent="1" source="Nvi5huXpUSMbHcGPlEOJ-7" target="Nvi5huXpUSMbHcGPlEOJ-42" edge="1">
          <mxGeometry relative="1" as="geometry">
            <mxPoint x="750" y="-2060" as="sourcePoint" />
            <mxPoint x="910" y="-2060" as="targetPoint" />
          </mxGeometry>
        </mxCell>
        <mxCell id="kzQuSgKzwXFJz22sEo70-47" value="" style="endArrow=none;html=1;rounded=0;exitX=1;exitY=0.5;exitDx=0;exitDy=0;entryX=0;entryY=0.5;entryDx=0;entryDy=0;" parent="1" source="Nvi5huXpUSMbHcGPlEOJ-17" target="Nvi5huXpUSMbHcGPlEOJ-8" edge="1">
          <mxGeometry relative="1" as="geometry">
            <mxPoint x="750" y="-1710" as="sourcePoint" />
            <mxPoint x="910" y="-1710" as="targetPoint" />
          </mxGeometry>
        </mxCell>
        <mxCell id="kzQuSgKzwXFJz22sEo70-48" value="" style="endArrow=none;html=1;rounded=0;exitX=1;exitY=0.5;exitDx=0;exitDy=0;entryX=0;entryY=0.5;entryDx=0;entryDy=0;" parent="1" source="Nvi5huXpUSMbHcGPlEOJ-18" target="Nvi5huXpUSMbHcGPlEOJ-8" edge="1">
          <mxGeometry relative="1" as="geometry">
            <mxPoint x="750" y="-1710" as="sourcePoint" />
            <mxPoint x="910" y="-1710" as="targetPoint" />
          </mxGeometry>
        </mxCell>
        <mxCell id="kzQuSgKzwXFJz22sEo70-49" value="" style="endArrow=none;html=1;rounded=0;exitX=1;exitY=0.5;exitDx=0;exitDy=0;entryX=0;entryY=0.5;entryDx=0;entryDy=0;" parent="1" source="Nvi5huXpUSMbHcGPlEOJ-16" target="Nvi5huXpUSMbHcGPlEOJ-8" edge="1">
          <mxGeometry relative="1" as="geometry">
            <mxPoint x="750" y="-1710" as="sourcePoint" />
            <mxPoint x="910" y="-1710" as="targetPoint" />
          </mxGeometry>
        </mxCell>
        <mxCell id="kzQuSgKzwXFJz22sEo70-50" value="" style="endArrow=none;html=1;rounded=0;exitX=1;exitY=0.5;exitDx=0;exitDy=0;entryX=0;entryY=0.5;entryDx=0;entryDy=0;" parent="1" source="Nvi5huXpUSMbHcGPlEOJ-45" target="Nvi5huXpUSMbHcGPlEOJ-8" edge="1">
          <mxGeometry relative="1" as="geometry">
            <mxPoint x="750" y="-1710" as="sourcePoint" />
            <mxPoint x="910" y="-1710" as="targetPoint" />
          </mxGeometry>
        </mxCell>
        <mxCell id="kzQuSgKzwXFJz22sEo70-52" value="" style="endArrow=none;html=1;rounded=0;exitX=0.75;exitY=1;exitDx=0;exitDy=0;entryX=0;entryY=0.5;entryDx=0;entryDy=0;" parent="1" source="Nvi5huXpUSMbHcGPlEOJ-8" target="kzQuSgKzwXFJz22sEo70-51" edge="1">
          <mxGeometry relative="1" as="geometry">
            <mxPoint x="315" y="-1720" as="sourcePoint" />
            <mxPoint x="1405" y="-1480" as="targetPoint" />
          </mxGeometry>
        </mxCell>
        <mxCell id="kzQuSgKzwXFJz22sEo70-53" value="M" style="resizable=0;html=1;whiteSpace=wrap;align=left;verticalAlign=bottom;" parent="kzQuSgKzwXFJz22sEo70-52" connectable="0" vertex="1">
          <mxGeometry x="-1" relative="1" as="geometry" />
        </mxCell>
        <mxCell id="kzQuSgKzwXFJz22sEo70-51" value="hat" style="shape=rhombus;perimeter=rhombusPerimeter;whiteSpace=wrap;html=1;align=center;" parent="1" vertex="1">
          <mxGeometry x="550" y="-1650" width="120" height="60" as="geometry" />
        </mxCell>
        <mxCell id="kzQuSgKzwXFJz22sEo70-56" value="" style="endArrow=none;html=1;rounded=0;exitX=0.25;exitY=1;exitDx=0;exitDy=0;entryX=0.5;entryY=0;entryDx=0;entryDy=0;" parent="1" source="Nvi5huXpUSMbHcGPlEOJ-8" target="kzQuSgKzwXFJz22sEo70-55" edge="1">
          <mxGeometry relative="1" as="geometry">
            <mxPoint x="265" y="-1720" as="sourcePoint" />
            <mxPoint x="605" y="-1200" as="targetPoint" />
          </mxGeometry>
        </mxCell>
        <mxCell id="kzQuSgKzwXFJz22sEo70-55" value="arbeitet an" style="shape=rhombus;perimeter=rhombusPerimeter;whiteSpace=wrap;html=1;align=center;" parent="1" vertex="1">
          <mxGeometry x="380" y="-1460" width="120" height="60" as="geometry" />
        </mxCell>
        <mxCell id="kzQuSgKzwXFJz22sEo70-62" value="" style="endArrow=none;html=1;rounded=0;entryX=0;entryY=0.5;entryDx=0;entryDy=0;exitX=0.75;exitY=1;exitDx=0;exitDy=0;" parent="1" source="Nvi5huXpUSMbHcGPlEOJ-7" target="kzQuSgKzwXFJz22sEo70-61" edge="1">
          <mxGeometry relative="1" as="geometry">
            <mxPoint x="695" y="-2200" as="sourcePoint" />
            <mxPoint x="1455" y="-1920" as="targetPoint" />
          </mxGeometry>
        </mxCell>
        <mxCell id="kzQuSgKzwXFJz22sEo70-61" value="beherbergt" style="shape=rhombus;perimeter=rhombusPerimeter;whiteSpace=wrap;html=1;align=center;" parent="1" vertex="1">
          <mxGeometry x="1030" y="-2090" width="120" height="60" as="geometry" />
        </mxCell>
        <mxCell id="kzQuSgKzwXFJz22sEo70-64" value="" style="endArrow=none;html=1;rounded=0;entryX=0.75;entryY=0;entryDx=0;entryDy=0;exitX=0.5;exitY=1;exitDx=0;exitDy=0;" parent="1" source="kzQuSgKzwXFJz22sEo70-66" target="Nvi5huXpUSMbHcGPlEOJ-10" edge="1">
          <mxGeometry relative="1" as="geometry">
            <mxPoint x="750" y="-1360" as="sourcePoint" />
            <mxPoint x="910" y="-1360" as="targetPoint" />
          </mxGeometry>
        </mxCell>
        <mxCell id="kzQuSgKzwXFJz22sEo70-65" value="N" style="resizable=0;html=1;whiteSpace=wrap;align=right;verticalAlign=bottom;" parent="kzQuSgKzwXFJz22sEo70-64" connectable="0" vertex="1">
          <mxGeometry x="1" relative="1" as="geometry" />
        </mxCell>
        <mxCell id="kzQuSgKzwXFJz22sEo70-67" value="" style="endArrow=none;html=1;rounded=0;entryX=0.5;entryY=0;entryDx=0;entryDy=0;exitX=0.75;exitY=1;exitDx=0;exitDy=0;" parent="1" source="kzQuSgKzwXFJz22sEo70-1" target="kzQuSgKzwXFJz22sEo70-66" edge="1">
          <mxGeometry relative="1" as="geometry">
            <mxPoint x="1455" y="-1880" as="sourcePoint" />
            <mxPoint x="1216" y="-1200" as="targetPoint" />
          </mxGeometry>
        </mxCell>
        <mxCell id="kzQuSgKzwXFJz22sEo70-66" value="umfasst" style="shape=rhombus;perimeter=rhombusPerimeter;whiteSpace=wrap;html=1;align=center;" parent="1" vertex="1">
          <mxGeometry x="1300" y="-1610" width="120" height="60" as="geometry" />
        </mxCell>
        <mxCell id="kzQuSgKzwXFJz22sEo70-69" value="" style="endArrow=none;html=1;rounded=0;exitX=0.5;exitY=1;exitDx=0;exitDy=0;entryX=0.75;entryY=0;entryDx=0;entryDy=0;" parent="1" source="kzQuSgKzwXFJz22sEo70-71" target="Nvi5huXpUSMbHcGPlEOJ-9" edge="1">
          <mxGeometry relative="1" as="geometry">
            <mxPoint x="750" y="-1710" as="sourcePoint" />
            <mxPoint x="910" y="-1710" as="targetPoint" />
          </mxGeometry>
        </mxCell>
        <mxCell id="kzQuSgKzwXFJz22sEo70-70" value="N" style="resizable=0;html=1;whiteSpace=wrap;align=right;verticalAlign=bottom;" parent="kzQuSgKzwXFJz22sEo70-69" connectable="0" vertex="1">
          <mxGeometry x="1" relative="1" as="geometry" />
        </mxCell>
        <mxCell id="kzQuSgKzwXFJz22sEo70-72" value="" style="endArrow=none;html=1;rounded=0;exitX=0.5;exitY=1;exitDx=0;exitDy=0;entryX=0.5;entryY=0;entryDx=0;entryDy=0;" parent="1" source="kzQuSgKzwXFJz22sEo70-1" target="kzQuSgKzwXFJz22sEo70-71" edge="1">
          <mxGeometry relative="1" as="geometry">
            <mxPoint x="1430" y="-1880" as="sourcePoint" />
            <mxPoint x="1015" y="-1440" as="targetPoint" />
          </mxGeometry>
        </mxCell>
        <mxCell id="kzQuSgKzwXFJz22sEo70-71" value="benötigt" style="shape=rhombus;perimeter=rhombusPerimeter;whiteSpace=wrap;html=1;align=center;" parent="1" vertex="1">
          <mxGeometry x="1141" y="-1730" width="120" height="60" as="geometry" />
        </mxCell>
        <mxCell id="kzQuSgKzwXFJz22sEo70-141" value="Standort" style="ellipse;whiteSpace=wrap;html=1;align=center;" parent="1" vertex="1">
          <mxGeometry x="1300" y="-1000" width="100" height="40" as="geometry" />
        </mxCell>
        <mxCell id="kzQuSgKzwXFJz22sEo70-143" value="" style="endArrow=none;html=1;rounded=0;entryX=0;entryY=0.5;entryDx=0;entryDy=0;exitX=1;exitY=0.5;exitDx=0;exitDy=0;" parent="1" source="Nvi5huXpUSMbHcGPlEOJ-10" target="kzQuSgKzwXFJz22sEo70-141" edge="1">
          <mxGeometry relative="1" as="geometry">
            <mxPoint x="800" y="-1430" as="sourcePoint" />
            <mxPoint x="960" y="-1430" as="targetPoint" />
          </mxGeometry>
        </mxCell>
        <mxCell id="kzQuSgKzwXFJz22sEo70-144" value="Name" style="ellipse;whiteSpace=wrap;html=1;align=center;" parent="1" vertex="1">
          <mxGeometry x="110" y="-1520" width="100" height="40" as="geometry" />
        </mxCell>
        <mxCell id="kzQuSgKzwXFJz22sEo70-145" value="" style="endArrow=none;html=1;rounded=0;exitX=1;exitY=0.5;exitDx=0;exitDy=0;entryX=0;entryY=0.5;entryDx=0;entryDy=0;" parent="1" source="kzQuSgKzwXFJz22sEo70-144" target="Nvi5huXpUSMbHcGPlEOJ-8" edge="1">
          <mxGeometry relative="1" as="geometry">
            <mxPoint x="800" y="-1640" as="sourcePoint" />
            <mxPoint x="250" y="-1650" as="targetPoint" />
          </mxGeometry>
        </mxCell>
        <mxCell id="kzQuSgKzwXFJz22sEo70-239" value="" style="endArrow=none;html=1;rounded=0;entryX=0.75;entryY=0;entryDx=0;entryDy=0;exitX=0;exitY=0.5;exitDx=0;exitDy=0;" parent="1" source="kzQuSgKzwXFJz22sEo70-57" target="Nvi5huXpUSMbHcGPlEOJ-8" edge="1">
          <mxGeometry relative="1" as="geometry">
            <mxPoint x="800" y="-1840" as="sourcePoint" />
            <mxPoint x="960" y="-1840" as="targetPoint" />
          </mxGeometry>
        </mxCell>
        <mxCell id="kzQuSgKzwXFJz22sEo70-240" value="N" style="resizable=0;html=1;whiteSpace=wrap;align=right;verticalAlign=bottom;" parent="kzQuSgKzwXFJz22sEo70-239" connectable="0" vertex="1">
          <mxGeometry x="1" relative="1" as="geometry" />
        </mxCell>
        <mxCell id="kzQuSgKzwXFJz22sEo70-241" value="" style="endArrow=none;html=1;rounded=0;entryX=1;entryY=0.5;entryDx=0;entryDy=0;exitX=0;exitY=0.5;exitDx=0;exitDy=0;" parent="1" source="kzQuSgKzwXFJz22sEo70-1" target="kzQuSgKzwXFJz22sEo70-57" edge="1">
          <mxGeometry relative="1" as="geometry">
            <mxPoint x="1380" y="-1900" as="sourcePoint" />
            <mxPoint x="315" y="-1760" as="targetPoint" />
          </mxGeometry>
        </mxCell>
        <mxCell id="kzQuSgKzwXFJz22sEo70-57" value="gehört zu" style="shape=rhombus;perimeter=rhombusPerimeter;whiteSpace=wrap;html=1;align=center;" parent="1" vertex="1">
          <mxGeometry x="850" y="-1870" width="120" height="60" as="geometry" />
        </mxCell>
      </root>
    </mxGraphModel>
  </diagram>
</mxfile>
